<?xml version="1.0" encoding="utf-8"?>
<!-- Generator: Adobe Illustrator 22.0.1, SVG Export Plug-In . SVG Version: 6.00 Build 0)  -->
<svg version="1.1" id="Ebene_1" xmlns="http://www.w3.org/2000/svg" xmlns:xlink="http://www.w3.org/1999/xlink" x="0px" y="0px"
	 viewBox="0 0 144.4 43.6" style="enable-background:new 0 0 144.4 43.6;" xml:space="preserve">
<style type="text/css">
	.st0{fill:none;stroke:#CB4A7C;stroke-width:0.5;stroke-miterlimit:10;}
	.st1{fill:none;stroke:#CB4A7C;stroke-width:0.3;stroke-miterlimit:10;}
</style>
<g>
	
		<image style="overflow:visible;enable-background:new    ;" width="258" height="192" xlink:href="5FC2631662031ECD.png"  transform="matrix(0.2366 0 0 0.2366 -0.9706 -0.7352)">
	</image>
	<g>
		<g>
			<path class="st0" d="M25,7.9H9.8l-0.2,9.4c0.2-0.1,0.6-0.2,1.1-0.3c0.5-0.1,0.9-0.2,1.4-0.3c0.5-0.1,0.9-0.1,1.4-0.2
				c0.5,0,0.8-0.1,1.2-0.1c1.8,0,3.4,0.3,4.8,0.9s2.7,1.4,3.7,2.5s1.8,2.4,2.4,3.9c0.5,1.5,0.8,3.2,0.8,5c0,1.9-0.3,3.6-1,5.1
				s-1.6,2.8-2.8,3.9c-1.2,1.1-2.6,1.9-4.2,2.5s-3.3,0.9-5.1,0.9c-2.5,0-4.8-0.7-6.9-2c-2-1.3-3.5-3.2-4.4-5.6l5.1-1.7
				c0.7,1.7,1.6,3,2.7,3.7c1.1,0.8,2.6,1.1,4.3,1.1c1,0,1.9-0.2,2.8-0.5c0.9-0.4,1.7-0.9,2.3-1.5c0.7-0.7,1.2-1.5,1.6-2.4
				c0.4-1,0.6-2,0.6-3.2c0-2.8-0.8-4.8-2.5-6.2c-1.7-1.4-3.9-2-6.5-2c-1,0-2.2,0.2-3.6,0.5c-1.5,0.3-2.8,0.8-4.1,1.5L5.1,3h20.1v4.9
				H25z"/>
			<path class="st0" d="M31.3,21.9c0-1.4,0.1-2.8,0.2-4.3s0.4-2.9,0.8-4.4c0.4-1.4,0.9-2.8,1.5-4.1c0.6-1.3,1.4-2.4,2.4-3.4
				s2.1-1.7,3.4-2.3c1.3-0.6,2.9-0.9,4.6-0.9c1.8,0,3.3,0.3,4.6,0.9c1.3,0.6,2.5,1.4,3.4,2.3c1,1,1.8,2.1,2.4,3.4s1.1,2.7,1.5,4.1
				s0.6,2.9,0.8,4.4c0.1,1.5,0.2,2.9,0.2,4.3c0,2-0.2,4.1-0.5,6.4c-0.4,2.3-1,4.4-2,6.3s-2.3,3.6-3.9,4.8c-1.7,1.3-3.8,1.9-6.5,1.9
				s-4.8-0.6-6.5-1.9s-3-2.9-3.9-4.8c-1-1.9-1.6-4-2-6.3C31.5,26,31.3,23.9,31.3,21.9z M36.4,21.9c0,1.2,0.1,2.7,0.2,4.4
				c0.2,1.7,0.5,3.3,1,4.9s1.3,2.9,2.4,4c1,1.1,2.4,1.6,4.2,1.6c1.8,0,3.2-0.5,4.2-1.6s1.8-2.4,2.4-4c0.5-1.6,0.9-3.2,1-4.9
				c0.2-1.7,0.2-3.2,0.2-4.4c0-0.8,0-1.8-0.1-2.9s-0.2-2.2-0.4-3.3c-0.2-1.1-0.5-2.2-0.8-3.2c-0.4-1-0.8-2-1.4-2.8s-1.3-1.5-2.1-2
				c-0.8-0.5-1.9-0.7-3-0.7s-2.2,0.2-3,0.7s-1.6,1.2-2.1,2c-0.6,0.8-1.1,1.8-1.4,2.8c-0.4,1-0.6,2.1-0.8,3.2
				c-0.2,1.1-0.3,2.2-0.4,3.3C36.4,20.1,36.4,21,36.4,21.9z"/>
		</g>
	</g>
</g>
<g>
	
		<image style="overflow:visible;opacity:0.8;enable-background:new    ;" width="342" height="171" xlink:href="5FC2631662031ECF.png"  transform="matrix(0.2364 0 0 0.2364 62.3526 1.6691)">
	</image>
	<g>
		<g>
			<path class="st1" d="M66.6,8.1l-3.2-4.9h2.3l1.8,3.2l1.9-3.2h2.2l-3.2,4.9v3.6h-1.9V8.1H66.6z"/>
			<path class="st1" d="M72.3,3.2h5.8v1.7h-3.9v1.6h3.7v1.7h-3.7v1.7h4.1v1.7h-6V3.2z"/>
			<path class="st1" d="M82.6,3.2h1.5l3.7,8.5h-2.1L85,9.9h-3.3L81,11.7h-2.1L82.6,3.2z M83.3,5.7l-1,2.6h2.1L83.3,5.7z"/>
			<path class="st1" d="M88.7,3.2H92c0.4,0,0.8,0,1.2,0.1s0.7,0.2,1,0.4c0.3,0.2,0.5,0.5,0.7,0.8s0.3,0.7,0.3,1.2
				c0,0.6-0.2,1.1-0.5,1.5S93.9,7.9,93.3,8l2.2,3.6h-2.2l-1.8-3.4h-0.9v3.4h-1.9L88.7,3.2L88.7,3.2z M90.6,6.8h1.1
				c0.2,0,0.3,0,0.5,0s0.4,0,0.5-0.1s0.3-0.2,0.4-0.3c0.1-0.1,0.1-0.3,0.1-0.5s0-0.4-0.1-0.5s-0.2-0.2-0.3-0.3C92.7,5,92.5,5,92.3,5
				S92,5,91.8,5h-1.2V6.8z"/>
			<path class="st1" d="M100.7,5.3c-0.2-0.2-0.4-0.3-0.6-0.4c-0.3-0.1-0.5-0.1-0.7-0.1c-0.1,0-0.3,0-0.4,0s-0.3,0.1-0.4,0.1
				c-0.1,0.1-0.2,0.2-0.3,0.3c-0.1,0.1-0.1,0.2-0.1,0.4c0,0.3,0.1,0.5,0.3,0.6c0.2,0.1,0.4,0.3,0.7,0.3c0.3,0.1,0.6,0.2,0.9,0.3
				c0.3,0.1,0.6,0.2,0.9,0.4c0.3,0.2,0.5,0.4,0.7,0.7c0.2,0.3,0.3,0.7,0.3,1.2s-0.1,0.9-0.3,1.2c-0.2,0.4-0.4,0.6-0.7,0.9
				c-0.3,0.2-0.6,0.4-1,0.5s-0.8,0.2-1.3,0.2c-0.6,0-1.1-0.1-1.5-0.3s-0.9-0.4-1.3-0.8l1.3-1.5c0.2,0.3,0.4,0.5,0.7,0.6
				c0.3,0.1,0.6,0.2,0.9,0.2c0.2,0,0.3,0,0.5-0.1c0.2,0,0.3-0.1,0.4-0.2s0.2-0.2,0.3-0.3c0.1-0.1,0.1-0.2,0.1-0.4
				c0-0.3-0.1-0.5-0.3-0.6c-0.2-0.1-0.4-0.3-0.7-0.4s-0.6-0.2-1-0.3c-0.3-0.1-0.7-0.2-1-0.4c-0.3-0.2-0.5-0.4-0.7-0.7
				c-0.2-0.3-0.3-0.7-0.3-1.1c0-0.5,0.1-0.9,0.3-1.2c0.2-0.3,0.4-0.6,0.7-0.9c0.3-0.2,0.6-0.4,1-0.5s0.8-0.2,1.2-0.2
				c0.5,0,0.9,0.1,1.4,0.2c0.4,0.1,0.9,0.4,1.2,0.7L100.7,5.3z"/>
			<path class="st1" d="M68.7,19.7c-0.2-0.2-0.4-0.3-0.6-0.4c-0.3-0.1-0.5-0.1-0.7-0.1c-0.1,0-0.3,0-0.4,0s-0.3,0.1-0.4,0.1
				c-0.1,0.1-0.2,0.2-0.3,0.3c-0.1,0.1-0.1,0.2-0.1,0.4c0,0.3,0.1,0.5,0.3,0.6c0.2,0.1,0.4,0.3,0.7,0.3s0.6,0.2,0.9,0.3
				c0.3,0.1,0.6,0.2,0.9,0.4c0.3,0.2,0.5,0.4,0.7,0.7c0.2,0.3,0.3,0.7,0.3,1.2s-0.1,0.9-0.3,1.2c-0.2,0.4-0.4,0.6-0.7,0.9
				c-0.3,0.2-0.6,0.4-1,0.5s-0.8,0.2-1.3,0.2c-0.6,0-1.1-0.1-1.5-0.3s-0.9-0.4-1.3-0.8l1.3-1.5c0.2,0.3,0.4,0.5,0.7,0.6
				c0.3,0.1,0.6,0.2,0.9,0.2c0.2,0,0.3,0,0.5-0.1c0.2,0,0.3-0.1,0.4-0.2s0.2-0.2,0.3-0.3c0.1-0.1,0.1-0.2,0.1-0.4
				c0-0.3-0.1-0.5-0.3-0.6c-0.2-0.1-0.4-0.3-0.7-0.4c-0.3-0.1-0.6-0.2-1-0.3c-0.3-0.1-0.7-0.2-1-0.4c-0.3-0.2-0.5-0.4-0.7-0.7
				c-0.2-0.3-0.3-0.7-0.3-1.1c0-0.5,0.1-0.9,0.3-1.2c0.2-0.3,0.4-0.6,0.7-0.9c0.3-0.2,0.6-0.4,1-0.5s0.8-0.2,1.2-0.2
				c0.5,0,0.9,0.1,1.4,0.2c0.4,0.1,0.9,0.4,1.2,0.7L68.7,19.7z"/>
			<path class="st1" d="M70.5,17.6h2l1.4,5.4l0,0l1.8-5.4h1.7l1.8,5.6l0,0l1.4-5.6h1.9L80,26.1h-1.7l-1.9-5.9l0,0l-1.9,5.9h-1.6
				L70.5,17.6z"/>
			<path class="st1" d="M83.3,17.6h1.9v8.5h-1.9V17.6z"/>
			<path class="st1" d="M91.1,19.7c-0.2-0.2-0.4-0.3-0.6-0.4c-0.3-0.1-0.5-0.1-0.7-0.1c-0.1,0-0.3,0-0.4,0s-0.3,0.1-0.4,0.1
				c-0.1,0.1-0.2,0.2-0.3,0.3c-0.1,0.1-0.1,0.2-0.1,0.4c0,0.3,0.1,0.5,0.3,0.6c0.2,0.1,0.4,0.3,0.7,0.3s0.6,0.2,0.9,0.3
				c0.3,0.1,0.6,0.2,0.9,0.4c0.3,0.2,0.5,0.4,0.7,0.7c0.2,0.3,0.3,0.7,0.3,1.2s-0.1,0.9-0.3,1.2c-0.2,0.4-0.4,0.6-0.7,0.9
				c-0.3,0.2-0.6,0.4-1,0.5s-0.8,0.2-1.3,0.2c-0.6,0-1.1-0.1-1.5-0.3s-0.9-0.4-1.3-0.8l1.3-1.5c0.2,0.3,0.4,0.5,0.7,0.6
				c0.3,0.1,0.6,0.2,0.9,0.2c0.2,0,0.3,0,0.5-0.1c0.2,0,0.3-0.1,0.4-0.2s0.2-0.2,0.3-0.3c0.1-0.1,0.1-0.2,0.1-0.4
				c0-0.3-0.1-0.5-0.3-0.6c-0.2-0.1-0.4-0.3-0.7-0.4c-0.3-0.1-0.6-0.2-1-0.3c-0.3-0.1-0.7-0.2-1-0.4c-0.3-0.2-0.5-0.4-0.7-0.7
				c-0.2-0.3-0.3-0.7-0.3-1.1c0-0.5,0.1-0.9,0.3-1.2c0.2-0.3,0.4-0.6,0.7-0.9c0.3-0.2,0.6-0.4,1-0.5s0.8-0.2,1.2-0.2
				c0.5,0,0.9,0.1,1.4,0.2c0.4,0.1,0.9,0.4,1.2,0.7L91.1,19.7z"/>
			<path class="st1" d="M98,19.7c-0.2-0.2-0.4-0.3-0.6-0.4c-0.3-0.1-0.5-0.1-0.7-0.1c-0.1,0-0.3,0-0.4,0s-0.3,0.1-0.4,0.1
				c-0.1,0.1-0.2,0.2-0.3,0.3c-0.1,0.1-0.1,0.2-0.1,0.4c0,0.3,0.1,0.5,0.3,0.6c0.2,0.1,0.4,0.3,0.7,0.3s0.6,0.2,0.9,0.3
				c0.3,0.1,0.6,0.2,0.9,0.4c0.3,0.2,0.5,0.4,0.7,0.7c0.2,0.3,0.3,0.7,0.3,1.2s-0.1,0.9-0.3,1.2c-0.2,0.4-0.4,0.6-0.7,0.9
				c-0.3,0.2-0.6,0.4-1,0.5s-0.8,0.2-1.3,0.2c-0.6,0-1.1-0.1-1.5-0.3s-0.9-0.4-1.3-0.8l1.3-1.5c0.2,0.3,0.4,0.5,0.7,0.6
				c0.3,0.1,0.6,0.2,0.9,0.2c0.2,0,0.3,0,0.5-0.1c0.2,0,0.3-0.1,0.4-0.2s0.2-0.2,0.3-0.3c0.1-0.1,0.1-0.2,0.1-0.4
				c0-0.3-0.1-0.5-0.3-0.6c-0.2-0.1-0.4-0.3-0.7-0.4c-0.3-0.1-0.6-0.2-1-0.3c-0.3-0.1-0.7-0.2-1-0.4c-0.3-0.2-0.5-0.4-0.7-0.7
				c-0.2-0.3-0.3-0.7-0.3-1.1c0-0.5,0.1-0.9,0.3-1.2c0.2-0.3,0.4-0.6,0.7-0.9c0.3-0.2,0.6-0.4,1-0.5s0.8-0.2,1.2-0.2
				c0.5,0,0.9,0.1,1.4,0.2c0.4,0.1,0.9,0.4,1.2,0.7L98,19.7z"/>
			<path class="st1" d="M104.2,17.6h2.8l2,5.5l0,0l2-5.5h2.8v8.5h-1.9v-6.5l0,0l-2.2,6.5h-1.4l-2.1-6.5l0,0v6.5h-1.9L104.2,17.6
				L104.2,17.6z"/>
			<path class="st1" d="M122.7,22.9c0,0.5-0.1,1-0.2,1.4s-0.4,0.8-0.7,1.1c-0.3,0.3-0.7,0.6-1.1,0.7c-0.4,0.2-1,0.3-1.5,0.3
				c-0.6,0-1.1-0.1-1.6-0.3c-0.4-0.2-0.8-0.4-1.1-0.7c-0.3-0.3-0.5-0.7-0.7-1.1s-0.2-0.9-0.2-1.4v-5.2h1.9v5.1c0,0.3,0,0.5,0.1,0.7
				s0.2,0.4,0.4,0.6s0.3,0.3,0.5,0.4s0.4,0.1,0.7,0.1c0.2,0,0.5,0,0.7-0.1s0.4-0.2,0.5-0.4s0.3-0.4,0.4-0.6s0.1-0.5,0.1-0.7v-5.1
				h1.9L122.7,22.9L122.7,22.9z"/>
			<path class="st1" d="M128.7,19.7c-0.2-0.2-0.4-0.3-0.6-0.4c-0.3-0.1-0.5-0.1-0.7-0.1c-0.1,0-0.3,0-0.4,0s-0.3,0.1-0.4,0.1
				c-0.1,0.1-0.2,0.2-0.3,0.3c-0.1,0.1-0.1,0.2-0.1,0.4c0,0.3,0.1,0.5,0.3,0.6c0.2,0.1,0.4,0.3,0.7,0.3s0.6,0.2,0.9,0.3
				c0.3,0.1,0.6,0.2,0.9,0.4c0.3,0.2,0.5,0.4,0.7,0.7c0.2,0.3,0.3,0.7,0.3,1.2s-0.1,0.9-0.3,1.2c-0.2,0.4-0.4,0.6-0.7,0.9
				c-0.3,0.2-0.6,0.4-1,0.5s-0.8,0.2-1.3,0.2c-0.6,0-1.1-0.1-1.5-0.3s-0.9-0.4-1.3-0.8l1.3-1.5c0.2,0.3,0.4,0.5,0.7,0.6
				c0.3,0.1,0.6,0.2,0.9,0.2c0.2,0,0.3,0,0.5-0.1c0.2,0,0.3-0.1,0.4-0.2s0.2-0.2,0.3-0.3c0.1-0.1,0.1-0.2,0.1-0.4
				c0-0.3-0.1-0.5-0.3-0.6c-0.2-0.1-0.4-0.3-0.7-0.4c-0.3-0.1-0.6-0.2-1-0.3c-0.3-0.1-0.7-0.2-1-0.4c-0.3-0.2-0.5-0.4-0.7-0.7
				c-0.2-0.3-0.3-0.7-0.3-1.1c0-0.5,0.1-0.9,0.3-1.2c0.2-0.3,0.4-0.6,0.7-0.9c0.3-0.2,0.6-0.4,1-0.5s0.8-0.2,1.2-0.2
				c0.5,0,0.9,0.1,1.4,0.2c0.4,0.1,0.9,0.4,1.2,0.7L128.7,19.7z"/>
			<path class="st1" d="M131.3,17.6h1.9v8.5h-1.9V17.6z"/>
			<path class="st1" d="M140.5,19.8c-0.2-0.2-0.4-0.4-0.7-0.5c-0.3-0.1-0.6-0.2-0.9-0.2s-0.7,0.1-1,0.2s-0.6,0.3-0.8,0.6
				c-0.2,0.2-0.4,0.5-0.5,0.9s-0.2,0.7-0.2,1.1s0.1,0.8,0.2,1.1c0.1,0.3,0.3,0.6,0.5,0.9c0.2,0.2,0.5,0.4,0.8,0.6s0.6,0.2,0.9,0.2
				c0.4,0,0.7-0.1,1-0.2s0.5-0.4,0.7-0.7l1.6,1.2c-0.4,0.5-0.8,0.9-1.4,1.1s-1.1,0.4-1.7,0.4c-0.7,0-1.3-0.1-1.8-0.3s-1-0.5-1.5-0.9
				c-0.4-0.4-0.7-0.9-1-1.4c-0.2-0.6-0.3-1.2-0.3-1.8s0.1-1.3,0.3-1.8c0.2-0.6,0.5-1,1-1.4c0.4-0.4,0.9-0.7,1.5-0.9
				c0.6-0.2,1.2-0.3,1.8-0.3c0.2,0,0.5,0,0.8,0.1c0.3,0,0.5,0.1,0.8,0.2s0.5,0.2,0.7,0.4s0.4,0.4,0.6,0.6L140.5,19.8z"/>
			<path class="st1" d="M70,34.2c-0.2-0.2-0.4-0.4-0.7-0.5c-0.3-0.1-0.6-0.2-0.9-0.2s-0.7,0.1-1,0.2s-0.6,0.3-0.8,0.6
				c-0.2,0.2-0.4,0.5-0.5,0.9s-0.2,0.7-0.2,1.1s0.1,0.8,0.2,1.1c0.1,0.3,0.3,0.6,0.5,0.9c0.2,0.2,0.5,0.4,0.8,0.6s0.6,0.2,0.9,0.2
				c0.4,0,0.7-0.1,1-0.2s0.5-0.4,0.7-0.7l1.6,1.2c-0.4,0.5-0.8,0.9-1.4,1.1s-1.1,0.4-1.7,0.4c-0.7,0-1.3-0.1-1.8-0.3s-1-0.5-1.5-0.9
				c-0.4-0.4-0.7-0.9-1-1.4c-0.2-0.6-0.3-1.2-0.3-1.8s0.1-1.3,0.3-1.8c0.2-0.6,0.5-1,1-1.4c0.4-0.4,0.9-0.7,1.5-0.9
				c0.6-0.2,1.2-0.3,1.8-0.3c0.2,0,0.5,0,0.8,0.1c0.3,0,0.5,0.1,0.8,0.2s0.5,0.2,0.7,0.4s0.4,0.4,0.6,0.6L70,34.2z"/>
			<path class="st1" d="M72.7,32h1.9v3.2h3.6V32h1.9v8.5h-1.9v-3.7h-3.6v3.7h-1.9V32z"/>
			<path class="st1" d="M84.6,32h1.5l3.7,8.5h-2.1L87,38.7h-3.3L83,40.5h-2.1L84.6,32z M85.3,34.5l-1,2.6h2.1L85.3,34.5z"/>
			<path class="st1" d="M90.7,32H94c0.4,0,0.8,0,1.2,0.1s0.7,0.2,1,0.4c0.3,0.2,0.5,0.5,0.7,0.8s0.3,0.7,0.3,1.2
				c0,0.6-0.2,1.1-0.5,1.5s-0.8,0.7-1.4,0.8l2.2,3.6h-2.2L93.5,37h-0.9v3.4h-1.9L90.7,32L90.7,32z M92.6,35.6h1.1c0.2,0,0.3,0,0.5,0
				s0.4,0,0.5-0.1c0.2-0.1,0.3-0.2,0.4-0.3c0.1-0.1,0.1-0.3,0.1-0.5s0-0.4-0.1-0.5s-0.2-0.2-0.3-0.3c-0.1-0.1-0.3-0.1-0.5-0.1
				s-0.3,0-0.5,0h-1.2V35.6z"/>
			<path class="st1" d="M99.9,33.7h-2.4V32h6.7v1.7h-2.4v6.8h-1.9L99.9,33.7L99.9,33.7z"/>
			<path class="st1" d="M109.3,34.1c-0.2-0.2-0.4-0.3-0.6-0.4c-0.3-0.1-0.5-0.1-0.7-0.1c-0.1,0-0.3,0-0.4,0s-0.3,0.1-0.4,0.1
				c-0.1,0.1-0.2,0.2-0.3,0.3c-0.1,0.1-0.1,0.2-0.1,0.4c0,0.3,0.1,0.5,0.3,0.6c0.2,0.1,0.4,0.3,0.7,0.3s0.6,0.2,0.9,0.3
				c0.3,0.1,0.6,0.2,0.9,0.4c0.3,0.2,0.5,0.4,0.7,0.7c0.2,0.3,0.3,0.7,0.3,1.2s-0.1,0.9-0.3,1.2c-0.2,0.4-0.4,0.6-0.7,0.9
				c-0.3,0.2-0.6,0.4-1,0.5s-0.8,0.2-1.3,0.2c-0.6,0-1.1-0.1-1.5-0.3s-0.9-0.4-1.3-0.8l1.3-1.5c0.2,0.3,0.4,0.5,0.7,0.6
				c0.3,0.1,0.6,0.2,0.9,0.2c0.2,0,0.3,0,0.5-0.1c0.2,0,0.3-0.1,0.4-0.2s0.2-0.2,0.3-0.3c0.1-0.1,0.1-0.2,0.1-0.4
				c0-0.3-0.1-0.5-0.3-0.6c-0.2-0.1-0.4-0.3-0.7-0.4c-0.3-0.1-0.6-0.2-1-0.3c-0.3-0.1-0.7-0.2-1-0.4c-0.3-0.2-0.5-0.4-0.7-0.7
				c-0.2-0.3-0.3-0.7-0.3-1.1c0-0.5,0.1-0.9,0.3-1.2c0.2-0.3,0.4-0.6,0.7-0.9c0.3-0.2,0.6-0.4,1-0.5s0.8-0.2,1.2-0.2
				c0.5,0,0.9,0.1,1.4,0.2c0.4,0.1,0.9,0.4,1.2,0.7L109.3,34.1z"/>
		</g>
	</g>
</g>
<g>
	
		<image style="overflow:visible;enable-background:new    ;" width="258" height="192" xlink:href="5FC2631662031ECA.png"  transform="matrix(0.2366 0 0 0.2366 -0.9706 -0.7352)">
	</image>
	<g>
		<g>
			<path class="st0" d="M25,7.9H9.8l-0.2,9.4c0.2-0.1,0.6-0.2,1.1-0.3c0.5-0.1,0.9-0.2,1.4-0.3c0.5-0.1,0.9-0.1,1.4-0.2
				c0.5,0,0.8-0.1,1.2-0.1c1.8,0,3.4,0.3,4.8,0.9s2.7,1.4,3.7,2.5s1.8,2.4,2.4,3.9c0.5,1.5,0.8,3.2,0.8,5c0,1.9-0.3,3.6-1,5.1
				s-1.6,2.8-2.8,3.9c-1.2,1.1-2.6,1.9-4.2,2.5s-3.3,0.9-5.1,0.9c-2.5,0-4.8-0.7-6.9-2c-2-1.3-3.5-3.2-4.4-5.6l5.1-1.7
				c0.7,1.7,1.6,3,2.7,3.7c1.1,0.8,2.6,1.1,4.3,1.1c1,0,1.9-0.2,2.8-0.5c0.9-0.4,1.7-0.9,2.3-1.5c0.7-0.7,1.2-1.5,1.6-2.4
				c0.4-1,0.6-2,0.6-3.2c0-2.8-0.8-4.8-2.5-6.2c-1.7-1.4-3.9-2-6.5-2c-1,0-2.2,0.2-3.6,0.5c-1.5,0.3-2.8,0.8-4.1,1.5L5.1,3h20.1v4.9
				H25z"/>
			<path class="st0" d="M31.3,21.9c0-1.4,0.1-2.8,0.2-4.3s0.4-2.9,0.8-4.4c0.4-1.4,0.9-2.8,1.5-4.1c0.6-1.3,1.4-2.4,2.4-3.4
				s2.1-1.7,3.4-2.3c1.3-0.6,2.9-0.9,4.6-0.9c1.8,0,3.3,0.3,4.6,0.9c1.3,0.6,2.5,1.4,3.4,2.3c1,1,1.8,2.1,2.4,3.4s1.1,2.7,1.5,4.1
				s0.6,2.9,0.8,4.4c0.1,1.5,0.2,2.9,0.2,4.3c0,2-0.2,4.1-0.5,6.4c-0.4,2.3-1,4.4-2,6.3s-2.3,3.6-3.9,4.8c-1.7,1.3-3.8,1.9-6.5,1.9
				s-4.8-0.6-6.5-1.9s-3-2.9-3.9-4.8c-1-1.9-1.6-4-2-6.3C31.5,26,31.3,23.9,31.3,21.9z M36.4,21.9c0,1.2,0.1,2.7,0.2,4.4
				c0.2,1.7,0.5,3.3,1,4.9s1.3,2.9,2.4,4c1,1.1,2.4,1.6,4.2,1.6c1.8,0,3.2-0.5,4.2-1.6s1.8-2.4,2.4-4c0.5-1.6,0.9-3.2,1-4.9
				c0.2-1.7,0.2-3.2,0.2-4.4c0-0.8,0-1.8-0.1-2.9s-0.2-2.2-0.4-3.3c-0.2-1.1-0.5-2.2-0.8-3.2c-0.4-1-0.8-2-1.4-2.8s-1.3-1.5-2.1-2
				c-0.8-0.5-1.9-0.7-3-0.7s-2.2,0.2-3,0.7s-1.6,1.2-2.1,2c-0.6,0.8-1.1,1.8-1.4,2.8c-0.4,1-0.6,2.1-0.8,3.2
				c-0.2,1.1-0.3,2.2-0.4,3.3C36.4,20.1,36.4,21,36.4,21.9z"/>
		</g>
	</g>
</g>
<g>
	
		<image style="overflow:visible;opacity:0.8;enable-background:new    ;" width="342" height="171" xlink:href="5FC2631662031ECB.png"  transform="matrix(0.2364 0 0 0.2364 62.3526 1.6691)">
	</image>
	<g>
		<g>
			<path class="st1" d="M66.6,8.1l-3.2-4.9h2.3l1.8,3.2l1.9-3.2h2.2l-3.2,4.9v3.6h-1.9V8.1H66.6z"/>
			<path class="st1" d="M72.3,3.2h5.8v1.7h-3.9v1.6h3.7v1.7h-3.7v1.7h4.1v1.7h-6V3.2z"/>
			<path class="st1" d="M82.6,3.2h1.5l3.7,8.5h-2.1L85,9.9h-3.3L81,11.7h-2.1L82.6,3.2z M83.3,5.7l-1,2.6h2.1L83.3,5.7z"/>
			<path class="st1" d="M88.7,3.2H92c0.4,0,0.8,0,1.2,0.1s0.7,0.2,1,0.4c0.3,0.2,0.5,0.5,0.7,0.8s0.3,0.7,0.3,1.2
				c0,0.6-0.2,1.1-0.5,1.5S93.9,7.9,93.3,8l2.2,3.6h-2.2l-1.8-3.4h-0.9v3.4h-1.9L88.7,3.2L88.7,3.2z M90.6,6.8h1.1
				c0.2,0,0.3,0,0.5,0s0.4,0,0.5-0.1s0.3-0.2,0.4-0.3c0.1-0.1,0.1-0.3,0.1-0.5s0-0.4-0.1-0.5s-0.2-0.2-0.3-0.3C92.7,5,92.5,5,92.3,5
				S92,5,91.8,5h-1.2V6.8z"/>
			<path class="st1" d="M100.7,5.3c-0.2-0.2-0.4-0.3-0.6-0.4c-0.3-0.1-0.5-0.1-0.7-0.1c-0.1,0-0.3,0-0.4,0s-0.3,0.1-0.4,0.1
				c-0.1,0.1-0.2,0.2-0.3,0.3c-0.1,0.1-0.1,0.2-0.1,0.4c0,0.3,0.1,0.5,0.3,0.6c0.2,0.1,0.4,0.3,0.7,0.3c0.3,0.1,0.6,0.2,0.9,0.3
				c0.3,0.1,0.6,0.2,0.9,0.4c0.3,0.2,0.5,0.4,0.7,0.7c0.2,0.3,0.3,0.7,0.3,1.2s-0.1,0.9-0.3,1.2c-0.2,0.4-0.4,0.6-0.7,0.9
				c-0.3,0.2-0.6,0.4-1,0.5s-0.8,0.2-1.3,0.2c-0.6,0-1.1-0.1-1.5-0.3s-0.9-0.4-1.3-0.8l1.3-1.5c0.2,0.3,0.4,0.5,0.7,0.6
				c0.3,0.1,0.6,0.2,0.9,0.2c0.2,0,0.3,0,0.5-0.1c0.2,0,0.3-0.1,0.4-0.2s0.2-0.2,0.3-0.3c0.1-0.1,0.1-0.2,0.1-0.4
				c0-0.3-0.1-0.5-0.3-0.6c-0.2-0.1-0.4-0.3-0.7-0.4s-0.6-0.2-1-0.3c-0.3-0.1-0.7-0.2-1-0.4c-0.3-0.2-0.5-0.4-0.7-0.7
				c-0.2-0.3-0.3-0.7-0.3-1.1c0-0.5,0.1-0.9,0.3-1.2c0.2-0.3,0.4-0.6,0.7-0.9c0.3-0.2,0.6-0.4,1-0.5s0.8-0.2,1.2-0.2
				c0.5,0,0.9,0.1,1.4,0.2c0.4,0.1,0.9,0.4,1.2,0.7L100.7,5.3z"/>
			<path class="st1" d="M68.7,19.7c-0.2-0.2-0.4-0.3-0.6-0.4c-0.3-0.1-0.5-0.1-0.7-0.1c-0.1,0-0.3,0-0.4,0s-0.3,0.1-0.4,0.1
				c-0.1,0.1-0.2,0.2-0.3,0.3c-0.1,0.1-0.1,0.2-0.1,0.4c0,0.3,0.1,0.5,0.3,0.6c0.2,0.1,0.4,0.3,0.7,0.3s0.6,0.2,0.9,0.3
				c0.3,0.1,0.6,0.2,0.9,0.4c0.3,0.2,0.5,0.4,0.7,0.7c0.2,0.3,0.3,0.7,0.3,1.2s-0.1,0.9-0.3,1.2c-0.2,0.4-0.4,0.6-0.7,0.9
				c-0.3,0.2-0.6,0.4-1,0.5s-0.8,0.2-1.3,0.2c-0.6,0-1.1-0.1-1.5-0.3s-0.9-0.4-1.3-0.8l1.3-1.5c0.2,0.3,0.4,0.5,0.7,0.6
				c0.3,0.1,0.6,0.2,0.9,0.2c0.2,0,0.3,0,0.5-0.1c0.2,0,0.3-0.1,0.4-0.2s0.2-0.2,0.3-0.3c0.1-0.1,0.1-0.2,0.1-0.4
				c0-0.3-0.1-0.5-0.3-0.6c-0.2-0.1-0.4-0.3-0.7-0.4c-0.3-0.1-0.6-0.2-1-0.3c-0.3-0.1-0.7-0.2-1-0.4c-0.3-0.2-0.5-0.4-0.7-0.7
				c-0.2-0.3-0.3-0.7-0.3-1.1c0-0.5,0.1-0.9,0.3-1.2c0.2-0.3,0.4-0.6,0.7-0.9c0.3-0.2,0.6-0.4,1-0.5s0.8-0.2,1.2-0.2
				c0.5,0,0.9,0.1,1.4,0.2c0.4,0.1,0.9,0.4,1.2,0.7L68.7,19.7z"/>
			<path class="st1" d="M70.5,17.6h2l1.4,5.4l0,0l1.8-5.4h1.7l1.8,5.6l0,0l1.4-5.6h1.9L80,26.1h-1.7l-1.9-5.9l0,0l-1.9,5.9h-1.6
				L70.5,17.6z"/>
			<path class="st1" d="M83.3,17.6h1.9v8.5h-1.9V17.6z"/>
			<path class="st1" d="M91.1,19.7c-0.2-0.2-0.4-0.3-0.6-0.4c-0.3-0.1-0.5-0.1-0.7-0.1c-0.1,0-0.3,0-0.4,0s-0.3,0.1-0.4,0.1
				c-0.1,0.1-0.2,0.2-0.3,0.3c-0.1,0.1-0.1,0.2-0.1,0.4c0,0.3,0.1,0.5,0.3,0.6c0.2,0.1,0.4,0.3,0.7,0.3s0.6,0.2,0.9,0.3
				c0.3,0.1,0.6,0.2,0.9,0.4c0.3,0.2,0.5,0.4,0.7,0.7c0.2,0.3,0.3,0.7,0.3,1.2s-0.1,0.9-0.3,1.2c-0.2,0.4-0.4,0.6-0.7,0.9
				c-0.3,0.2-0.6,0.4-1,0.5s-0.8,0.2-1.3,0.2c-0.6,0-1.1-0.1-1.5-0.3s-0.9-0.4-1.3-0.8l1.3-1.5c0.2,0.3,0.4,0.5,0.7,0.6
				c0.3,0.1,0.6,0.2,0.9,0.2c0.2,0,0.3,0,0.5-0.1c0.2,0,0.3-0.1,0.4-0.2s0.2-0.2,0.3-0.3c0.1-0.1,0.1-0.2,0.1-0.4
				c0-0.3-0.1-0.5-0.3-0.6c-0.2-0.1-0.4-0.3-0.7-0.4c-0.3-0.1-0.6-0.2-1-0.3c-0.3-0.1-0.7-0.2-1-0.4c-0.3-0.2-0.5-0.4-0.7-0.7
				c-0.2-0.3-0.3-0.7-0.3-1.1c0-0.5,0.1-0.9,0.3-1.2c0.2-0.3,0.4-0.6,0.7-0.9c0.3-0.2,0.6-0.4,1-0.5s0.8-0.2,1.2-0.2
				c0.5,0,0.9,0.1,1.4,0.2c0.4,0.1,0.9,0.4,1.2,0.7L91.1,19.7z"/>
			<path class="st1" d="M98,19.7c-0.2-0.2-0.4-0.3-0.6-0.4c-0.3-0.1-0.5-0.1-0.7-0.1c-0.1,0-0.3,0-0.4,0s-0.3,0.1-0.4,0.1
				c-0.1,0.1-0.2,0.2-0.3,0.3c-0.1,0.1-0.1,0.2-0.1,0.4c0,0.3,0.1,0.5,0.3,0.6c0.2,0.1,0.4,0.3,0.7,0.3s0.6,0.2,0.9,0.3
				c0.3,0.1,0.6,0.2,0.9,0.4c0.3,0.2,0.5,0.4,0.7,0.7c0.2,0.3,0.3,0.7,0.3,1.2s-0.1,0.9-0.3,1.2c-0.2,0.4-0.4,0.6-0.7,0.9
				c-0.3,0.2-0.6,0.4-1,0.5s-0.8,0.2-1.3,0.2c-0.6,0-1.1-0.1-1.5-0.3s-0.9-0.4-1.3-0.8l1.3-1.5c0.2,0.3,0.4,0.5,0.7,0.6
				c0.3,0.1,0.6,0.2,0.9,0.2c0.2,0,0.3,0,0.5-0.1c0.2,0,0.3-0.1,0.4-0.2s0.2-0.2,0.3-0.3c0.1-0.1,0.1-0.2,0.1-0.4
				c0-0.3-0.1-0.5-0.3-0.6c-0.2-0.1-0.4-0.3-0.7-0.4c-0.3-0.1-0.6-0.2-1-0.3c-0.3-0.1-0.7-0.2-1-0.4c-0.3-0.2-0.5-0.4-0.7-0.7
				c-0.2-0.3-0.3-0.7-0.3-1.1c0-0.5,0.1-0.9,0.3-1.2c0.2-0.3,0.4-0.6,0.7-0.9c0.3-0.2,0.6-0.4,1-0.5s0.8-0.2,1.2-0.2
				c0.5,0,0.9,0.1,1.4,0.2c0.4,0.1,0.9,0.4,1.2,0.7L98,19.7z"/>
			<path class="st1" d="M104.2,17.6h2.8l2,5.5l0,0l2-5.5h2.8v8.5h-1.9v-6.5l0,0l-2.2,6.5h-1.4l-2.1-6.5l0,0v6.5h-1.9L104.2,17.6
				L104.2,17.6z"/>
			<path class="st1" d="M122.7,22.9c0,0.5-0.1,1-0.2,1.4s-0.4,0.8-0.7,1.1c-0.3,0.3-0.7,0.6-1.1,0.7c-0.4,0.2-1,0.3-1.5,0.3
				c-0.6,0-1.1-0.1-1.6-0.3c-0.4-0.2-0.8-0.4-1.1-0.7c-0.3-0.3-0.5-0.7-0.7-1.1s-0.2-0.9-0.2-1.4v-5.2h1.9v5.1c0,0.3,0,0.5,0.1,0.7
				s0.2,0.4,0.4,0.6s0.3,0.3,0.5,0.4s0.4,0.1,0.7,0.1c0.2,0,0.5,0,0.7-0.1s0.4-0.2,0.5-0.4s0.3-0.4,0.4-0.6s0.1-0.5,0.1-0.7v-5.1
				h1.9L122.7,22.9L122.7,22.9z"/>
			<path class="st1" d="M128.7,19.7c-0.2-0.2-0.4-0.3-0.6-0.4c-0.3-0.1-0.5-0.1-0.7-0.1c-0.1,0-0.3,0-0.4,0s-0.3,0.1-0.4,0.1
				c-0.1,0.1-0.2,0.2-0.3,0.3c-0.1,0.1-0.1,0.2-0.1,0.4c0,0.3,0.1,0.5,0.3,0.6c0.2,0.1,0.4,0.3,0.7,0.3s0.6,0.2,0.9,0.3
				c0.3,0.1,0.6,0.2,0.9,0.4c0.3,0.2,0.5,0.4,0.7,0.7c0.2,0.3,0.3,0.7,0.3,1.2s-0.1,0.9-0.3,1.2c-0.2,0.4-0.4,0.6-0.7,0.9
				c-0.3,0.2-0.6,0.4-1,0.5s-0.8,0.2-1.3,0.2c-0.6,0-1.1-0.1-1.5-0.3s-0.9-0.4-1.3-0.8l1.3-1.5c0.2,0.3,0.4,0.5,0.7,0.6
				c0.3,0.1,0.6,0.2,0.9,0.2c0.2,0,0.3,0,0.5-0.1c0.2,0,0.3-0.1,0.4-0.2s0.2-0.2,0.3-0.3c0.1-0.1,0.1-0.2,0.1-0.4
				c0-0.3-0.1-0.5-0.3-0.6c-0.2-0.1-0.4-0.3-0.7-0.4c-0.3-0.1-0.6-0.2-1-0.3c-0.3-0.1-0.7-0.2-1-0.4c-0.3-0.2-0.5-0.4-0.7-0.7
				c-0.2-0.3-0.3-0.7-0.3-1.1c0-0.5,0.1-0.9,0.3-1.2c0.2-0.3,0.4-0.6,0.7-0.9c0.3-0.2,0.6-0.4,1-0.5s0.8-0.2,1.2-0.2
				c0.5,0,0.9,0.1,1.4,0.2c0.4,0.1,0.9,0.4,1.2,0.7L128.7,19.7z"/>
			<path class="st1" d="M131.3,17.6h1.9v8.5h-1.9V17.6z"/>
			<path class="st1" d="M140.5,19.8c-0.2-0.2-0.4-0.4-0.7-0.5c-0.3-0.1-0.6-0.2-0.9-0.2s-0.7,0.1-1,0.2s-0.6,0.3-0.8,0.6
				c-0.2,0.2-0.4,0.5-0.5,0.9s-0.2,0.7-0.2,1.1s0.1,0.8,0.2,1.1c0.1,0.3,0.3,0.6,0.5,0.9c0.2,0.2,0.5,0.4,0.8,0.6s0.6,0.2,0.9,0.2
				c0.4,0,0.7-0.1,1-0.2s0.5-0.4,0.7-0.7l1.6,1.2c-0.4,0.5-0.8,0.9-1.4,1.1s-1.1,0.4-1.7,0.4c-0.7,0-1.3-0.1-1.8-0.3s-1-0.5-1.5-0.9
				c-0.4-0.4-0.7-0.9-1-1.4c-0.2-0.6-0.3-1.2-0.3-1.8s0.1-1.3,0.3-1.8c0.2-0.6,0.5-1,1-1.4c0.4-0.4,0.9-0.7,1.5-0.9
				c0.6-0.2,1.2-0.3,1.8-0.3c0.2,0,0.5,0,0.8,0.1c0.3,0,0.5,0.1,0.8,0.2s0.5,0.2,0.7,0.4s0.4,0.4,0.6,0.6L140.5,19.8z"/>
			<path class="st1" d="M70,34.2c-0.2-0.2-0.4-0.4-0.7-0.5c-0.3-0.1-0.6-0.2-0.9-0.2s-0.7,0.1-1,0.2s-0.6,0.3-0.8,0.6
				c-0.2,0.2-0.4,0.5-0.5,0.9s-0.2,0.7-0.2,1.1s0.1,0.8,0.2,1.1c0.1,0.3,0.3,0.6,0.5,0.9c0.2,0.2,0.5,0.4,0.8,0.6s0.6,0.2,0.9,0.2
				c0.4,0,0.7-0.1,1-0.2s0.5-0.4,0.7-0.7l1.6,1.2c-0.4,0.5-0.8,0.9-1.4,1.1s-1.1,0.4-1.7,0.4c-0.7,0-1.3-0.1-1.8-0.3s-1-0.5-1.5-0.9
				c-0.4-0.4-0.7-0.9-1-1.4c-0.2-0.6-0.3-1.2-0.3-1.8s0.1-1.3,0.3-1.8c0.2-0.6,0.5-1,1-1.4c0.4-0.4,0.9-0.7,1.5-0.9
				c0.6-0.2,1.2-0.3,1.8-0.3c0.2,0,0.5,0,0.8,0.1c0.3,0,0.5,0.1,0.8,0.2s0.5,0.2,0.7,0.4s0.4,0.4,0.6,0.6L70,34.2z"/>
			<path class="st1" d="M72.7,32h1.9v3.2h3.6V32h1.9v8.5h-1.9v-3.7h-3.6v3.7h-1.9V32z"/>
			<path class="st1" d="M84.6,32h1.5l3.7,8.5h-2.1L87,38.7h-3.3L83,40.5h-2.1L84.6,32z M85.3,34.5l-1,2.6h2.1L85.3,34.5z"/>
			<path class="st1" d="M90.7,32H94c0.4,0,0.8,0,1.2,0.1s0.7,0.2,1,0.4c0.3,0.2,0.5,0.5,0.7,0.8s0.3,0.7,0.3,1.2
				c0,0.6-0.2,1.1-0.5,1.5s-0.8,0.7-1.4,0.8l2.2,3.6h-2.2L93.5,37h-0.9v3.4h-1.9L90.7,32L90.7,32z M92.6,35.6h1.1c0.2,0,0.3,0,0.5,0
				s0.4,0,0.5-0.1c0.2-0.1,0.3-0.2,0.4-0.3c0.1-0.1,0.1-0.3,0.1-0.5s0-0.4-0.1-0.5s-0.2-0.2-0.3-0.3c-0.1-0.1-0.3-0.1-0.5-0.1
				s-0.3,0-0.5,0h-1.2V35.6z"/>
			<path class="st1" d="M99.9,33.7h-2.4V32h6.7v1.7h-2.4v6.8h-1.9L99.9,33.7L99.9,33.7z"/>
			<path class="st1" d="M109.3,34.1c-0.2-0.2-0.4-0.3-0.6-0.4c-0.3-0.1-0.5-0.1-0.7-0.1c-0.1,0-0.3,0-0.4,0s-0.3,0.1-0.4,0.1
				c-0.1,0.1-0.2,0.2-0.3,0.3c-0.1,0.1-0.1,0.2-0.1,0.4c0,0.3,0.1,0.5,0.3,0.6c0.2,0.1,0.4,0.3,0.7,0.3s0.6,0.2,0.9,0.3
				c0.3,0.1,0.6,0.2,0.9,0.4c0.3,0.2,0.5,0.4,0.7,0.7c0.2,0.3,0.3,0.7,0.3,1.2s-0.1,0.9-0.3,1.2c-0.2,0.4-0.4,0.6-0.7,0.9
				c-0.3,0.2-0.6,0.4-1,0.5s-0.8,0.2-1.3,0.2c-0.6,0-1.1-0.1-1.5-0.3s-0.9-0.4-1.3-0.8l1.3-1.5c0.2,0.3,0.4,0.5,0.7,0.6
				c0.3,0.1,0.6,0.2,0.9,0.2c0.2,0,0.3,0,0.5-0.1c0.2,0,0.3-0.1,0.4-0.2s0.2-0.2,0.3-0.3c0.1-0.1,0.1-0.2,0.1-0.4
				c0-0.3-0.1-0.5-0.3-0.6c-0.2-0.1-0.4-0.3-0.7-0.4c-0.3-0.1-0.6-0.2-1-0.3c-0.3-0.1-0.7-0.2-1-0.4c-0.3-0.2-0.5-0.4-0.7-0.7
				c-0.2-0.3-0.3-0.7-0.3-1.1c0-0.5,0.1-0.9,0.3-1.2c0.2-0.3,0.4-0.6,0.7-0.9c0.3-0.2,0.6-0.4,1-0.5s0.8-0.2,1.2-0.2
				c0.5,0,0.9,0.1,1.4,0.2c0.4,0.1,0.9,0.4,1.2,0.7L109.3,34.1z"/>
		</g>
	</g>
</g>
</svg>
