<?xml version="1.0" encoding="utf-8"?>
<!-- Generator: Adobe Illustrator 22.0.1, SVG Export Plug-In . SVG Version: 6.00 Build 0)  -->
<svg version="1.1" id="Ebene_2_1_" xmlns="http://www.w3.org/2000/svg" xmlns:xlink="http://www.w3.org/1999/xlink" x="0px" y="0px"
	 viewBox="0 0 917.2 85.3" style="enable-background:new 0 0 917.2 85.3;" xml:space="preserve">
<style type="text/css">
	.st0{fill:#FFFFFF;}
</style>
<title>Zeichenfläche 1</title>
<path class="st0" d="M252.1,72.4V30c0-3.7-0.7-6.2-2-7.4c-0.9-0.8-2.8-1.2-5.7-1.2h-6.5v51h-22.3v-67h22.3v12.1h6.5
	c20,0,30,3.8,30,11.4v43.5H252.1z M306.8,12.1c-2.9,1.3-6,1.9-9.1,1.8c-3.1,0.1-6.2-0.5-9-1.8c-2.4-1.2-3.6-2.6-3.6-4.1
	c0-1.6,1.2-3,3.7-4.2c2.8-1.3,5.9-1.9,9-1.8c3.1-0.1,6.2,0.5,9.1,1.8c2.4,1.2,3.6,2.6,3.6,4.2S309.3,10.9,306.8,12.1L306.8,12.1z
	 M308.9,72.4h-22.3V17.5h22.3C308.9,17.5,308.9,72.4,308.9,72.4z M349.7,68.5c2.8,0.5,5.7,0.7,8.5,0.6v3.7
	c-14.1,0-23.8-0.9-29.2-2.6c-4.2-1.4-6.3-3.7-6.3-7V9.4H345v8.1h13v3.8h-13v41.2C345,65.6,346.6,67.6,349.7,68.5L349.7,68.5z
	 M393.2,72.5h-6.7v10.8h-22.3V26.5c0-3.2,1.8-5.5,5.5-6.9c4.5-1.8,12.6-2.7,24.1-2.7c11.4,0,19.4,0.9,23.9,2.7
	c3.6,1.5,5.4,3.8,5.4,6.9v34.8C423.1,68.8,413.1,72.5,393.2,72.5L393.2,72.5z M400.9,27.1c0-2.9-0.6-4.9-1.8-5.8
	c-0.9-0.7-2.6-1-5.3-1c-2.9,0-4.7,0.3-5.6,1c-1.1,0.9-1.7,2.9-1.7,5.8v41.6h6.7c2.8,0,4.7-0.4,5.7-1.3c1.3-1.1,2-3.5,2-7.2
	L400.9,27.1L400.9,27.1z M488.6,70.3c-4.5,1.8-12.5,2.7-24,2.7c-11.5,0-19.5-0.9-24.1-2.8c-3.7-1.5-5.5-3.7-5.5-6.8V47.5
	c0-7.4,10.1-11.1,30.2-11.1h6.5v-8.1c0-3.5-0.4-5.7-1-6.6s-2.7-1.3-6-1.4c-3.4,0-5.5,0.5-6.2,1.5c-0.6,0.7-0.9,2.8-0.9,6.3v4.1
	h-22.4v-4.5c0-3.2,1.7-5.7,5.1-7.4c4.7-2.3,12.8-3.4,24.3-3.4c19.6,0,29.4,3.6,29.4,10.8v35.6C494,66.5,492.2,68.8,488.6,70.3z
	 M471.7,40.2h-6.5c-2.9,0-4.8,0.4-5.7,1.2c-1.3,1.1-2,3.5-2,7.2v14.2c0,2.9,0.6,4.8,1.8,5.7c0.9,0.7,2.6,1,5.3,1
	c2.7,0,4.7-0.4,5.6-1.1s1.5-2.6,1.5-5.6L471.7,40.2L471.7,40.2z M531.2,22.2c-2.1,0.8-3.1,2.7-3.1,5.6v44.6h-22.3V27.2
	c0-3.3,2.1-5.6,6.2-7c5.3-1.7,15-2.6,29.1-2.6v3.7C536,21.3,532.7,21.6,531.2,22.2L531.2,22.2z M599.5,70.3
	c-4.5,1.8-12.5,2.7-24,2.7S556,72,551.4,70.2c-3.7-1.5-5.5-3.7-5.5-6.8V47.5c0-7.4,10.1-11.1,30.2-11.1h6.5v-8.1
	c0-3.5-0.4-5.7-1-6.6s-2.7-1.3-6-1.4c-3.4,0-5.5,0.5-6.2,1.5c-0.6,0.7-0.9,2.8-0.9,6.3v4.1h-22.3v-4.5c0-3.2,1.7-5.7,5.1-7.4
	c4.7-2.3,12.8-3.4,24.3-3.4c19.6,0,29.4,3.6,29.4,10.8v35.6C604.9,66.5,603.1,68.8,599.5,70.3L599.5,70.3z M582.6,40.2h-6.5
	c-2.9,0-4.8,0.4-5.7,1.2c-1.3,1.1-2,3.5-2,7.2v14.2c0,2.9,0.6,4.8,1.8,5.7c0.9,0.7,2.6,1,5.3,1s4.7-0.4,5.7-1.1
	c1-0.7,1.4-2.6,1.4-5.6L582.6,40.2L582.6,40.2z M670.1,70.4c-4.5,1.8-12.5,2.7-24,2.7c-11.5,0-19.5-0.9-24.1-2.8
	c-3.6-1.5-5.4-3.8-5.4-6.9V28.7c0-7.5,10-11.2,30.1-11.2h6.5V5.4h22.3v58.1C675.5,66.7,673.7,69,670.1,70.4L670.1,70.4z M653.2,21.4
	h-6.5c-2.9,0-4.9,0.4-5.9,1.2c-1.3,1.2-2,3.6-2,7.3V63c0,2.9,0.6,4.8,1.9,5.7c0.9,0.7,2.7,1.1,5.4,1.1c2.8,0,4.7-0.4,5.6-1.2
	c1-0.8,1.5-2.7,1.5-5.6V21.4L653.2,21.4z M748.1,42.9v20.6c0,3.1-1.8,5.4-5.4,6.8c-4.5,1.9-12.5,2.8-24,2.8c-11.5,0-19.5-0.9-24-2.7
	c-3.7-1.4-5.5-3.7-5.5-6.9V28c0-7.3,9.8-10.9,29.5-10.9c19.7,0,29.5,3.6,29.4,10.9v8.2h-36.7v26.7c0,2.9,0.6,4.8,1.7,5.7
	c0.9,0.7,2.8,1.1,5.6,1.1c2.8,0,4.6-0.4,5.4-1.1c1.1-0.9,1.7-2.9,1.7-5.8V42.9L748.1,42.9z M725.7,32.5v-4.2c0-3.5-0.3-5.6-0.8-6.3
	c-0.7-1-2.8-1.5-6.2-1.5c-3.3,0-5.3,0.5-6.1,1.5c-0.8,1-1.2,3.1-1.2,6.5v4H725.7z M777.1,70.6c-2.1,1.6-4.7,2.5-7.3,2.4
	c-2.7,0.1-5.3-0.8-7.4-2.3c-1.9-1.3-3.1-3.4-3.1-5.7c0-2.3,1.2-4.4,3.1-5.6c2.1-1.6,4.7-2.4,7.4-2.3c2.6-0.1,5.2,0.8,7.3,2.3
	c1.9,1.3,3,3.4,3,5.6C780.1,67.1,778.9,69.3,777.1,70.6z M845.1,42.9v20.5c0,3.1-1.8,5.4-5.4,6.9c-4.5,1.8-12.5,2.7-24,2.7
	c-11.5,0-19.5-0.9-24-2.7c-3.7-1.4-5.5-3.7-5.5-6.9V27.9c0-7.3,9.8-10.9,29.5-10.9c19.7,0,29.5,3.6,29.4,10.9v6.5h-22.4v-6.2
	c0-3.5-0.3-5.6-0.8-6.3c-0.7-0.9-2.8-1.4-6.2-1.4c-3.3,0-5.3,0.5-6.1,1.4c-0.8,0.9-1.2,3.1-1.2,6.5v34.5c0,2.9,0.6,4.8,1.8,5.7
	c0.9,0.7,2.7,1,5.5,1s4.6-0.4,5.4-1.1c1.1-0.9,1.7-2.8,1.7-5.8V42.9L845.1,42.9z M892.8,72.4V30c0-3.7-0.7-6.2-2-7.4
	c-0.9-0.8-2.8-1.2-5.7-1.2h-6.5v51h-22.3v-67h22.3v12.1h6.5c20,0,30,3.8,30,11.4v43.5L892.8,72.4z"/>
<g>
	<path class="st0" d="M9.4,65.4c0,0.7,0.1,1.3,0.4,1.8c0.3,0.5,0.7,1,1.1,1.4s1,0.7,1.6,0.9s1.3,0.3,1.9,0.3c0.9,0,1.7-0.2,2.3-0.6
		c0.7-0.4,1.3-1,1.8-1.6l2.2,1.7c-1.6,2.1-3.8,3.1-6.7,3.1c-1.2,0-2.3-0.2-3.2-0.6c-1-0.4-1.8-1-2.5-1.7c-0.7-0.7-1.2-1.6-1.6-2.5
		c-0.4-1-0.5-2-0.5-3.2s0.2-2.2,0.6-3.2c0.4-1,0.9-1.8,1.6-2.5C9.2,58,10,57.4,11,57s2-0.6,3.1-0.6c1.3,0,2.5,0.2,3.4,0.7
		c0.9,0.5,1.7,1.1,2.3,1.8c0.6,0.8,1,1.6,1.3,2.6s0.4,1.9,0.4,2.9v1H9.4z M18.4,63.1c0-0.6-0.1-1.2-0.3-1.8c-0.2-0.5-0.5-1-0.8-1.4
		C17,59.6,16.5,59.3,16,59c-0.5-0.2-1.2-0.3-1.9-0.3c-0.7,0-1.3,0.1-1.9,0.4c-0.6,0.3-1.1,0.6-1.5,1c-0.4,0.4-0.7,0.9-0.9,1.4
		c-0.2,0.5-0.3,1-0.3,1.6H18.4z"/>
	<path class="st0" d="M25,56.8h2.9v2.3h0.1c0.4-0.8,1-1.5,1.9-2s1.9-0.8,3.1-0.8c0.7,0,1.4,0.1,2.1,0.3c0.7,0.2,1.3,0.6,1.8,1
		c0.5,0.5,0.9,1.1,1.2,1.8c0.3,0.7,0.4,1.6,0.4,2.6V72h-2.9v-9c0-0.7-0.1-1.3-0.3-1.8c-0.2-0.5-0.4-0.9-0.8-1.2
		c-0.3-0.3-0.7-0.5-1.1-0.7s-0.8-0.2-1.3-0.2c-0.6,0-1.2,0.1-1.7,0.3c-0.5,0.2-1,0.5-1.3,0.9s-0.7,0.9-0.9,1.6
		c-0.2,0.6-0.3,1.4-0.3,2.3V72H25V56.8z"/>
	<path class="st0" d="M42.8,58.6c0.8-0.7,1.7-1.3,2.8-1.7c1.1-0.4,2.1-0.6,3.2-0.6c1.1,0,2.1,0.1,2.9,0.4c0.8,0.3,1.5,0.7,2,1.1
		c0.5,0.5,0.9,1,1.1,1.6c0.2,0.6,0.4,1.2,0.4,1.9v7.7c0,0.5,0,1,0,1.5c0,0.4,0.1,0.9,0.1,1.3h-2.6c-0.1-0.8-0.1-1.5-0.1-2.3h-0.1
		c-0.6,1-1.4,1.7-2.3,2.1c-0.9,0.4-1.9,0.6-3,0.6c-0.7,0-1.4-0.1-2-0.3c-0.6-0.2-1.2-0.5-1.7-0.9c-0.5-0.4-0.9-0.9-1.1-1.4
		c-0.3-0.6-0.4-1.2-0.4-2c0-1,0.2-1.8,0.7-2.5c0.4-0.7,1-1.2,1.8-1.6c0.8-0.4,1.6-0.7,2.7-0.9c1-0.2,2.1-0.3,3.2-0.3h2.1v-0.6
		c0-0.4-0.1-0.8-0.2-1.2c-0.1-0.4-0.4-0.7-0.7-1c-0.3-0.3-0.7-0.6-1.1-0.7c-0.4-0.2-1-0.3-1.6-0.3c-0.6,0-1,0.1-1.5,0.2
		s-0.8,0.2-1.1,0.4s-0.7,0.3-0.9,0.6c-0.3,0.2-0.5,0.4-0.8,0.6L42.8,58.6z M51,64.7c-0.7,0-1.4,0-2.1,0.1c-0.7,0.1-1.4,0.2-2,0.4
		c-0.6,0.2-1.1,0.5-1.4,0.9c-0.4,0.4-0.6,0.9-0.6,1.5c0,0.9,0.3,1.5,0.9,1.9c0.6,0.4,1.4,0.6,2.4,0.6c0.8,0,1.5-0.1,2-0.4
		c0.6-0.3,1-0.6,1.3-1c0.3-0.4,0.6-0.9,0.7-1.4c0.1-0.5,0.2-1,0.2-1.6v-1H51z"/>
	<path class="st0" d="M59.4,47.8h2.9V59h0.1c0.5-0.8,1.2-1.4,2.2-1.9c1-0.5,2-0.7,3.1-0.7c1.2,0,2.2,0.2,3.2,0.6
		c0.9,0.4,1.8,1,2.4,1.7c0.7,0.7,1.2,1.6,1.6,2.5s0.5,2,0.5,3.2s-0.2,2.2-0.5,3.1s-0.9,1.8-1.6,2.5c-0.7,0.7-1.5,1.3-2.4,1.7
		c-0.9,0.4-2,0.6-3.2,0.6c-1,0-2-0.2-3-0.7c-1-0.4-1.7-1.1-2.3-1.9h-0.1V72h-2.9V47.8z M67.2,69.7c0.8,0,1.5-0.1,2.1-0.4
		c0.6-0.3,1.1-0.6,1.6-1.1s0.8-1,1-1.7c0.2-0.7,0.4-1.4,0.4-2.1c0-0.8-0.1-1.5-0.4-2.1c-0.2-0.7-0.6-1.2-1-1.7s-0.9-0.8-1.6-1.1
		c-0.6-0.3-1.3-0.4-2.1-0.4s-1.5,0.1-2.1,0.4s-1.1,0.6-1.6,1.1s-0.8,1-1,1.7c-0.2,0.7-0.4,1.4-0.4,2.1c0,0.8,0.1,1.5,0.4,2.1
		c0.2,0.7,0.6,1.2,1,1.7s0.9,0.8,1.6,1.1C65.8,69.5,66.5,69.7,67.2,69.7z"/>
	<path class="st0" d="M79.1,47.8H82V72h-2.9V47.8z"/>
	<path class="st0" d="M88.8,65.4c0,0.7,0.1,1.3,0.4,1.8c0.3,0.5,0.7,1,1.1,1.4s1,0.7,1.6,0.9s1.3,0.3,1.9,0.3c0.9,0,1.7-0.2,2.3-0.6
		c0.7-0.4,1.3-1,1.8-1.6l2.2,1.7c-1.6,2.1-3.8,3.1-6.7,3.1c-1.2,0-2.3-0.2-3.2-0.6c-1-0.4-1.8-1-2.5-1.7c-0.7-0.7-1.2-1.6-1.6-2.5
		c-0.4-1-0.5-2-0.5-3.2s0.2-2.2,0.6-3.2c0.4-1,0.9-1.8,1.6-2.5c0.7-0.7,1.5-1.3,2.5-1.7s2-0.6,3.1-0.6c1.3,0,2.5,0.2,3.4,0.7
		c0.9,0.5,1.7,1.1,2.3,1.8c0.6,0.8,1,1.6,1.3,2.6s0.4,1.9,0.4,2.9v1H88.8z M97.9,63.1c0-0.6-0.1-1.2-0.3-1.8c-0.2-0.5-0.5-1-0.8-1.4
		c-0.4-0.4-0.8-0.7-1.4-0.9c-0.5-0.2-1.2-0.3-1.9-0.3c-0.7,0-1.3,0.1-1.9,0.4c-0.6,0.3-1.1,0.6-1.5,1c-0.4,0.4-0.7,0.9-0.9,1.4
		c-0.2,0.5-0.3,1-0.3,1.6H97.9z"/>
	<path class="st0" d="M119.6,72h-2.9v-2.2h-0.1c-0.6,0.8-1.3,1.4-2.3,1.9c-1,0.4-2,0.7-3,0.7c-1.2,0-2.2-0.2-3.2-0.6
		c-0.9-0.4-1.8-1-2.4-1.7c-0.7-0.7-1.2-1.6-1.6-2.5s-0.5-2-0.5-3.1s0.2-2.2,0.5-3.2s0.9-1.8,1.6-2.5c0.7-0.7,1.5-1.3,2.4-1.7
		s2-0.6,3.2-0.6c1.1,0,2.1,0.2,3.1,0.7c1,0.5,1.7,1.1,2.2,1.9h0.1V47.8h2.9V72z M111.7,69.7c0.8,0,1.5-0.1,2.1-0.4
		c0.6-0.3,1.1-0.6,1.6-1.1s0.8-1,1-1.7c0.2-0.7,0.4-1.4,0.4-2.1c0-0.8-0.1-1.5-0.4-2.1c-0.2-0.7-0.6-1.2-1-1.7s-0.9-0.8-1.6-1.1
		c-0.6-0.3-1.3-0.4-2.1-0.4s-1.5,0.1-2.1,0.4s-1.1,0.6-1.6,1.1s-0.8,1-1,1.7s-0.4,1.4-0.4,2.1c0,0.8,0.1,1.5,0.4,2.1
		c0.2,0.7,0.6,1.2,1,1.7s0.9,0.8,1.6,1.1C110.3,69.5,111,69.7,111.7,69.7z"/>
	<path class="st0" d="M132.8,47.8h2.9V59h0.1c0.5-0.8,1.2-1.4,2.2-1.9c1-0.5,2-0.7,3.1-0.7c1.2,0,2.2,0.2,3.2,0.6
		c0.9,0.4,1.8,1,2.4,1.7c0.7,0.7,1.2,1.6,1.6,2.5s0.5,2,0.5,3.2s-0.2,2.2-0.5,3.1s-0.9,1.8-1.6,2.5c-0.7,0.7-1.5,1.3-2.4,1.7
		c-0.9,0.4-2,0.6-3.2,0.6c-1,0-2-0.2-3-0.7c-1-0.4-1.7-1.1-2.3-1.9h-0.1V72h-2.9V47.8z M140.7,69.7c0.8,0,1.5-0.1,2.1-0.4
		c0.6-0.3,1.1-0.6,1.6-1.1s0.8-1,1-1.7c0.2-0.7,0.4-1.4,0.4-2.1c0-0.8-0.1-1.5-0.4-2.1c-0.2-0.7-0.6-1.2-1-1.7s-0.9-0.8-1.6-1.1
		c-0.6-0.3-1.3-0.4-2.1-0.4s-1.5,0.1-2.1,0.4s-1.1,0.6-1.6,1.1s-0.8,1-1,1.7c-0.2,0.7-0.4,1.4-0.4,2.1c0,0.8,0.1,1.5,0.4,2.1
		c0.2,0.7,0.6,1.2,1,1.7s0.9,0.8,1.6,1.1C139.2,69.5,139.9,69.7,140.7,69.7z"/>
	<path class="st0" d="M150.6,56.8h3.3l4.5,11.8h0.1l4.3-11.8h3.1l-7.2,18.4c-0.3,0.7-0.5,1.3-0.8,1.8s-0.6,1-1,1.4
		c-0.4,0.4-0.8,0.7-1.4,0.9c-0.5,0.2-1.2,0.3-2,0.3c-0.4,0-0.9,0-1.3-0.1c-0.4-0.1-0.9-0.2-1.3-0.3l0.4-2.6c0.6,0.2,1.1,0.4,1.7,0.4
		c0.4,0,0.8-0.1,1.1-0.2c0.3-0.1,0.6-0.3,0.8-0.5c0.2-0.2,0.4-0.5,0.6-0.8c0.1-0.3,0.3-0.6,0.4-1l0.9-2.4L150.6,56.8z"/>
</g>
</svg>
